<?xml version="1.0" encoding="UTF-8"?>
<svg version="1.1" xmlns="http://www.w3.org/2000/svg" width="64" height="64">
<path d="M0 0 C21.12 0 42.24 0 64 0 C64 21.12 64 42.24 64 64 C42.88 64 21.76 64 0 64 C0 42.88 0 21.76 0 0 Z " fill="#F5F5F5" transform="translate(0,0)"/>
<path d="M0 0 C4 0 4 0 5.8515625 1.71484375 C6.43679687 2.44832031 7.02203125 3.18179687 7.625 3.9375 C9.93623974 6.93259705 9.93623974 6.93259705 13 9 C13.226875 8.4225 13.45375 7.845 13.6875 7.25 C15.33038023 4.4336339 17.39533227 2.91922886 20 1 C20.33 4.96 20.66 8.92 21 13 C22.64886059 11.37807179 24.2940024 9.75236228 25.9375 8.125 C26.85402344 7.22007813 27.77054688 6.31515625 28.71484375 5.3828125 C31.01187627 3.22317745 31.01187627 3.22317745 32 1 C32.66 1 33.32 1 34 1 C34 8.92 34 16.84 34 25 C33.01 25 32.02 25 31 25 C31 19.72 31 14.44 31 9 C29.783125 10.0725 28.56625 11.145 27.3125 12.25 C24.2685511 14.91548278 21.18925997 17.50839065 18 20 C18 16.37 18 12.74 18 9 C12.41509524 13.44512827 8.20788009 18.24454091 4 24 C2.68 23.67 1.36 23.34 0 23 C0.58910156 22.32453125 1.17820312 21.6490625 1.78515625 20.953125 C2.91244141 19.61507812 2.91244141 19.61507812 4.0625 18.25 C4.81660156 17.36828125 5.57070313 16.4865625 6.34765625 15.578125 C8.19660843 13.21538237 8.19660843 13.21538237 7.96875 10.8984375 C6.78005166 8.5689722 5.36265855 7.14070098 3.4375 5.375 C2.25665005 4.28681232 1.10189664 3.16806798 0 2 C0 1.34 0 0.68 0 0 Z " fill="#3B3B3B" transform="translate(15,19)"/>
<path d="M0 0 C0.66 0 1.32 0 2 0 C2.33 3.3 2.66 6.6 3 10 C3.69867188 9.278125 4.39734375 8.55625 5.1171875 7.8125 C6.02726562 6.884375 6.93734375 5.95625 7.875 5 C8.77992187 4.071875 9.68484375 3.14375 10.6171875 2.1875 C13 0 13 0 15 0 C15 5.28 15 10.56 15 16 C14.67 16 14.34 16 14 16 C13.67 12.37 13.34 8.74 13 5 C12.38511719 5.5775 11.77023438 6.155 11.13671875 6.75 C10.32847656 7.4925 9.52023438 8.235 8.6875 9 C7.88699219 9.7425 7.08648437 10.485 6.26171875 11.25 C4 13 4 13 1 13 C1 10.03 1 7.06 1 4 C-0.65 4.33 -2.3 4.66 -4 5 C-2.71937515 3.2925002 -1.38232443 1.62626404 0 0 Z " fill="#D0D0CF" transform="translate(31,28)"/>
<path d="M0 0 C0.33 0 0.66 0 1 0 C1 6.6 1 13.2 1 20 C0.34 20 -0.32 20 -1 20 C-1.2210949 17.04210873 -1.42740245 14.08447236 -1.625 11.125 C-1.68945312 10.28324219 -1.75390625 9.44148438 -1.8203125 8.57421875 C-1.871875 7.76855469 -1.9234375 6.96289062 -1.9765625 6.1328125 C-2.02893066 5.38918457 -2.08129883 4.64555664 -2.13525391 3.87939453 C-2 2 -2 2 0 0 Z " fill="#222222" transform="translate(47,23)"/>
<path d="M0 0 C0 3.80345877 -1.13786331 4.77701015 -3.5 7.6875 C-4.1496875 8.49574219 -4.799375 9.30398437 -5.46875 10.13671875 C-5.9740625 10.75160156 -6.479375 11.36648437 -7 12 C-8.32 11.67 -9.64 11.34 -11 11 C-9.73347137 9.53792657 -8.46161082 8.08047074 -7.1875 6.625 C-6.47980469 5.81289063 -5.77210937 5.00078125 -5.04296875 4.1640625 C-3 2 -3 2 0 0 Z " fill="#2B2B2B" transform="translate(26,31)"/>
<path d="M0 0 C1.32 0 2.64 0 4 0 C5.484375 1.53125 5.484375 1.53125 6.75 3.5 C7.39195313 4.47453125 7.39195313 4.47453125 8.046875 5.46875 C8.36140625 5.9740625 8.6759375 6.479375 9 7 C8.01 7.33 7.02 7.66 6 8 C4.99403703 7.0479279 3.99538437 6.08812654 3 5.125 C2.443125 4.59132813 1.88625 4.05765625 1.3125 3.5078125 C0 2 0 2 0 0 Z " fill="#434343" transform="translate(15,19)"/>
<path d="M0 0 C0.66 0 1.32 0 2 0 C2.33 3.96 2.66 7.92 3 12 C2.34 12 1.68 12 1 12 C1 9.36 1 6.72 1 4 C-0.65 4.33 -2.3 4.66 -4 5 C-2.71937515 3.2925002 -1.38232443 1.62626404 0 0 Z " fill="#A9A9A7" transform="translate(31,28)"/>
<path d="M0 0 C1.65 1.32 3.3 2.64 5 4 C4.67 5.65 4.34 7.3 4 9 C3.67 7.68 3.34 6.36 3 5 C2.34 5 1.68 5 1 5 C0.67 3.35 0.34 1.7 0 0 Z " fill="#C4C4C3" transform="translate(19,25)"/>
<path d="M0 0 C0 3 0 3 -2 6 C-3.32 5.67 -4.64 5.34 -6 5 C-4.02 3.35 -2.04 1.7 0 0 Z " fill="#212120" transform="translate(21,37)"/>
</svg>
